<svg width="647" height="175" viewBox="0 0 647 175" fill="none" xmlns="http://www.w3.org/2000/svg">
<path d="M15 15H25.7026V90.9436H15V15Z" fill="white"/>
<path d="M15 25.0711L15 15L95.7061 15L95.7061 25.0711L15 25.0711Z" fill="white"/>
<path d="M4.64595e-07 10L0 0L47 -1.93292e-06L47 10L4.64595e-07 10Z" fill="white"/>
<path d="M10 47H0L2.50679e-07 0H10L10 47Z" fill="white"/>
<path d="M298 108.499C298 95.6878 301.372 85.4024 308.117 77.6414C314.861 69.8805 323.077 66 332.764 66C339.018 66 345.027 67.725 350.79 71.175C356.554 74.6235 361.336 78.9344 365.137 84.1094C366.118 85.3409 366.609 86.6954 366.609 88.1744V88.5434C366.609 89.6518 366.302 90.6373 365.689 91.4998C365.076 92.3623 364.095 93.1633 362.746 93.9029C361.397 94.5178 360.232 95.0114 359.251 95.3803C358.27 95.7509 356.799 96.2428 354.837 96.8593C352.997 97.4743 351.832 97.8448 351.342 97.9678C325.713 106.837 312.592 111.456 311.979 111.826C311.489 112.072 311.244 112.441 311.244 112.935C311.244 113.674 311.427 114.906 311.795 116.631C312.163 118.354 312.96 120.634 314.187 123.468C315.535 126.3 317.13 128.949 318.969 131.413C320.931 133.753 323.69 135.847 327.246 137.695C330.802 139.42 334.788 140.283 339.202 140.283C347.786 140.283 355.266 137.203 361.642 131.043C363.359 129.319 364.769 128.457 365.873 128.457C367.958 128.457 369 129.381 369 131.229C369 131.967 368.509 132.952 367.528 134.184C363.604 139.359 358.699 143.485 352.813 146.564C346.927 149.521 340.735 151 334.236 151C330.066 151 325.959 150.26 321.912 148.781C317.988 147.304 314.125 145.026 310.324 141.945C306.645 138.865 303.641 134.431 301.311 128.641C299.104 122.851 298 116.137 298 108.499ZM348.399 88.9139C348.399 87.3119 346.253 84.8474 341.961 81.5219C337.669 78.0735 333.193 76.3485 328.534 76.3485C323.016 76.3485 318.601 78.7499 315.29 83.5544C312.102 88.3589 310.508 94.9499 310.508 103.326C310.508 104.311 310.814 104.805 311.427 104.805C311.673 104.805 317.497 102.586 328.902 98.1523C340.428 93.5938 346.376 91.2539 346.744 91.1309C347.847 90.5144 348.399 89.7748 348.399 88.9139Z" fill="white"/>
<path d="M469.315 71.4973V70.5771C469.315 68.859 470.059 68 471.545 68C471.794 68 472.536 68.0613 473.776 68.1838C475.139 68.1838 476.936 68.2466 479.166 68.3691C481.521 68.4916 484.06 68.5528 486.786 68.5528C489.513 68.5528 491.99 68.4916 494.22 68.3691C496.575 68.2466 498.371 68.1838 499.611 68.1838C500.973 68.0613 501.779 68 502.026 68C504.009 68 505 69.1668 505 71.4973C505 72.9688 504.567 73.9503 503.699 74.4419C502.832 74.9318 501.779 75.1784 500.54 75.1784C499.425 75.0559 498.247 75.1172 497.008 75.3622C495.769 75.6071 494.902 76.2212 494.406 77.2027C494.158 77.5702 493.787 78.8579 493.291 81.0675C490.317 91.8641 486.663 102.722 482.325 113.641C478.113 124.56 474.519 132.964 471.545 138.853C468.696 144.742 466.776 148.178 465.785 149.159C464.793 150.386 463.553 151 462.067 151C459.961 151 457.855 149.037 455.748 145.111C448.685 132.719 442.49 121.124 437.162 110.328C431.834 99.4085 428.055 91.4338 425.824 86.4038C423.718 81.3737 422.417 78.4904 421.921 77.7539C421.178 76.7724 420.186 76.0987 418.947 75.7296C417.832 75.2396 416.841 74.9931 415.974 74.9931C415.23 74.9931 414.549 74.6869 413.929 74.0729C413.31 73.3379 413 72.1098 413 70.3933C413 68.7978 413.743 68 415.23 68C415.602 68 416.531 68.0613 418.018 68.1838C419.629 68.1838 421.797 68.2466 424.523 68.3691C427.249 68.4916 430.223 68.5528 433.444 68.5528C436.666 68.5528 439.64 68.4916 442.366 68.3691C445.092 68.2466 447.198 68.1838 448.685 68.1838C450.296 68.0613 451.287 68 451.659 68C453.393 68 454.261 69.2893 454.261 71.8648C454.261 72.9688 453.951 73.8278 453.331 74.4419C452.836 74.9318 452.216 75.1784 451.473 75.1784C450.729 75.1784 449.552 75.2397 447.941 75.3622C446.331 75.3622 444.906 75.4846 443.667 75.7296C441.065 75.9746 439.764 77.0802 439.764 79.0432C439.764 80.0247 440.631 82.9693 442.366 87.8769C444.224 92.7844 447.012 99.286 450.729 107.383C454.446 115.359 458.349 122.842 462.438 129.835C463.429 130.817 464.05 131.308 464.297 131.308C464.917 131.308 465.226 131.001 465.226 130.388C469.562 122.904 473.218 114.99 476.192 106.648C479.166 98.3045 481.086 91.9254 481.954 87.5078C482.945 83.0918 483.44 80.086 483.44 78.4904C483.44 78.123 483.378 77.8151 483.254 77.5701C483.254 77.2027 483.131 76.8949 482.883 76.6499C482.636 76.4049 482.387 76.2212 482.139 76.0987C481.892 75.9746 481.521 75.8521 481.024 75.7296C480.653 75.6071 480.281 75.5459 479.909 75.5459C479.538 75.4234 478.98 75.3622 478.236 75.3622C477.618 75.2397 477.059 75.1784 476.563 75.1784C476.068 75.0559 475.386 74.9931 474.519 74.9931C473.653 74.8706 472.909 74.8094 472.289 74.8094C470.306 74.4419 469.315 73.3379 469.315 71.4973Z" fill="white"/>
<path d="M528 108.961C528 96.3001 531.985 85.974 539.954 77.9844C548.047 69.9948 557.609 66 568.644 66C579.923 66 589.303 70.0562 596.781 78.1701C604.26 86.1596 608 96.4228 608 108.961C608 121.867 604.077 132.131 596.23 139.752C588.506 147.251 579.065 151 567.908 151C556.138 151 546.513 146.942 539.034 138.83C531.679 130.718 528 120.761 528 108.961ZM549.701 132.378C554.483 138.646 560.736 141.78 568.459 141.78C576.183 141.78 582.559 138.646 587.586 132.378C592.613 125.985 595.127 118.425 595.127 109.699C595.127 99.8653 592.307 91.6287 586.666 84.9906C581.149 78.2314 574.713 74.8502 567.356 74.8502C561.226 74.8502 555.525 77.5549 550.253 82.9625C545.104 88.3718 542.529 96.7296 542.529 108.039C542.529 117.873 544.919 125.985 549.701 132.378Z" fill="white"/>
<path d="M74.1103 147.593C74.1103 147.683 74.065 147.774 73.9744 147.864C73.8838 147.955 73.7479 148 73.5667 148H47.4756C47.3397 148 47.2265 147.955 47.1359 147.864C47.0453 147.774 47 147.683 47 147.593C47 147.457 47.2038 147.321 47.6115 147.186L53.0472 145.625C54.6326 145.127 55.9009 144.404 56.8521 143.454C57.8487 142.458 58.3469 140.988 58.3469 139.043V67.1821C58.3469 66.5036 58.3016 66.006 58.211 65.6893C58.1657 65.3274 57.8713 64.7845 57.3277 64.0607L51.1447 54.3571C51.0088 54.0857 50.8503 53.8595 50.6691 53.6786C50.5332 53.4524 50.4652 53.294 50.4652 53.2036C50.4652 53.1131 50.5105 53.0679 50.6011 53.0679C50.6917 53.0226 50.8276 53 51.0088 53H66.1607C66.4778 53 66.7269 53.1357 66.9081 53.4071C67.0893 53.6786 67.3837 54.1309 67.7914 54.7643L120.245 136.532L119.498 137.889V61.9571C119.498 60.0119 118.977 58.5417 117.935 57.5464C116.939 56.506 115.648 55.7821 114.062 55.375L105.501 53.8143C105.048 53.6786 104.822 53.5429 104.822 53.4071C104.822 53.2714 104.867 53.181 104.958 53.1357C105.048 53.0452 105.184 53 105.365 53H131.456C131.638 53 131.774 53.0452 131.864 53.1357C131.955 53.181 132 53.2714 132 53.4071C132 53.5429 131.774 53.6786 131.321 53.8143L125.885 55.375C124.345 55.7821 123.076 56.506 122.08 57.5464C121.083 58.5417 120.585 60.0119 120.585 61.9571V135.921C120.585 136.419 120.676 136.871 120.857 137.279C121.038 137.686 121.219 138.07 121.4 138.432L126.089 145.625C126.496 146.213 126.768 146.665 126.904 146.982C127.085 147.299 127.176 147.548 127.176 147.729C127.176 147.774 127.131 147.842 127.04 147.932C126.949 147.977 126.768 148 126.496 148H112.16C111.435 148 111.073 147.683 111.073 147.05C111.073 146.824 111.027 146.575 110.937 146.304C110.846 145.987 110.71 145.67 110.529 145.354L57.3957 63.3821H59.502V139.111C59.502 141.011 60.0003 142.458 60.9968 143.454C61.9933 144.449 63.239 145.173 64.7338 145.625L73.4309 147.186C73.8838 147.321 74.1103 147.457 74.1103 147.593Z" fill="white"/>
<path d="M231.77 139.389C231.647 139.389 231.091 139.758 230.105 140.498C229.241 141.113 228.009 141.914 226.407 142.9C224.926 143.763 223.2 144.687 221.227 145.673C219.254 146.536 216.85 147.276 214.014 147.891C211.178 148.631 208.28 149 205.321 149C197.552 149 191.079 146.598 185.899 141.791C180.721 136.985 177.577 130.268 176.467 121.643C176.098 117.945 175.913 114.063 175.913 109.996C175.913 107.654 175.913 102.232 175.913 93.7282C176.036 85.1028 176.098 80.4193 176.098 79.6795C176.098 77.3386 174.371 75.5514 170.919 74.3194C170.302 74.0717 169.316 73.7641 167.959 73.395C166.726 73.0243 165.925 72.6552 165.555 72.2861C165.185 71.9154 165 71.2371 165 70.2528V69.6975C165 68.0948 165.678 67.232 167.035 67.1089C179.612 66.3707 186.209 66 186.824 66C188.059 66 188.674 66.7398 188.674 68.2179V107.039C188.674 115.295 189.845 121.827 192.189 126.634C193.916 129.96 196.504 132.918 199.957 135.507C203.532 137.971 207.601 139.203 212.164 139.203C218.329 139.203 223.694 136.923 228.255 132.363C228.503 131.994 228.81 131.625 229.18 131.254C229.674 130.762 229.982 130.454 230.105 130.329C230.228 130.083 230.414 129.837 230.66 129.591C230.906 129.344 231.03 129.159 231.03 129.036C231.153 128.79 231.276 128.544 231.401 128.296C231.524 128.05 231.585 127.865 231.585 127.742C231.585 127.496 231.585 127.187 231.585 126.818V80.2348C231.585 77.5232 230.353 75.7975 227.886 75.0576C227.268 74.8116 224.309 74.2579 219.008 73.395C217.158 73.0243 216.233 71.9769 216.233 70.2528C216.233 68.404 217.096 67.3566 218.823 67.1089C222.892 66.9859 226.53 66.8628 229.735 66.7398C233.064 66.6168 235.346 66.5552 236.579 66.5552C237.935 66.4322 239.044 66.3707 239.908 66.3707C240.894 66.3707 241.634 66.3707 242.128 66.3707C243.976 66.3707 244.901 67.6027 244.901 70.0666V129.407C244.901 129.776 244.901 130.083 244.901 130.329C245.024 130.454 245.149 130.639 245.272 130.885C245.518 131.008 245.765 131.131 246.011 131.254C246.259 131.378 246.628 131.563 247.122 131.809C247.614 132.055 248.17 132.301 248.786 132.549C249.403 132.795 250.204 133.164 251.191 133.658C252.177 134.15 253.225 134.644 254.335 135.136C255.444 135.63 256 136.369 256 137.355C256 138.71 255.691 139.635 255.075 140.127C254.581 140.621 253.779 140.99 252.67 141.237C251.56 141.36 249.526 141.976 246.566 143.085C243.607 144.071 240.402 145.55 236.948 147.522C236.21 148.014 235.531 148.262 234.914 148.262C233.187 148.262 232.325 147.028 232.325 144.564V140.127C232.325 139.635 232.139 139.389 231.77 139.389Z" fill="white"/>
<path d="M645.946 8H635.875V80.4012H645.946V8Z" fill="white"/>
<path d="M645.946 17.6014V8L570 8V17.6014L645.946 17.6014Z" fill="white"/>
<path d="M597.244 31.01H601.594C601.821 31.01 601.988 30.97 602.094 30.89C602.208 30.81 602.331 30.77 602.464 30.77C602.598 30.77 602.698 30.8033 602.764 30.87C602.838 30.93 602.894 31.03 602.934 31.17L603.374 33.08C603.428 33.3267 603.344 33.47 603.124 33.51C603.031 33.53 602.948 33.52 602.874 33.48C602.801 33.44 602.738 33.3667 602.684 33.26C602.491 32.7933 602.314 32.4433 602.154 32.21C602.001 31.97 601.844 31.81 601.684 31.73C601.531 31.6433 601.348 31.6 601.134 31.6H600.284V38.52C600.284 38.6267 600.314 38.71 600.374 38.77C600.441 38.83 600.531 38.8733 600.644 38.9L601.074 38.98C601.254 39.04 601.344 39.14 601.344 39.28C601.344 39.4667 601.221 39.56 600.974 39.56H597.864C597.611 39.56 597.484 39.4667 597.484 39.28C597.484 39.14 597.574 39.04 597.754 38.98L598.184 38.9C598.304 38.8733 598.394 38.83 598.454 38.77C598.521 38.71 598.554 38.6267 598.554 38.52V31.6H597.694C597.494 31.6 597.314 31.6433 597.154 31.73C596.994 31.8167 596.838 31.98 596.684 32.22C596.531 32.4533 596.354 32.8 596.154 33.26C596.101 33.3667 596.038 33.44 595.964 33.48C595.898 33.52 595.811 33.53 595.704 33.51C595.604 33.49 595.531 33.4433 595.484 33.37C595.444 33.29 595.438 33.1933 595.464 33.08L595.904 31.17C595.944 31.03 595.998 30.93 596.064 30.87C596.131 30.8033 596.231 30.77 596.364 30.77C596.504 30.77 596.628 30.81 596.734 30.89C596.848 30.97 597.018 31.01 597.244 31.01ZM609.254 37.29L608.664 37.41L611.124 31.49C611.211 31.3033 611.304 31.1767 611.404 31.11C611.511 31.0367 611.661 31 611.854 31H613.514C613.648 31 613.744 31.0233 613.804 31.07C613.864 31.1167 613.894 31.1833 613.894 31.27C613.894 31.35 613.871 31.4133 613.824 31.46C613.778 31.5067 613.714 31.5433 613.634 31.57L613.284 31.67C613.158 31.7033 613.064 31.7533 613.004 31.82C612.951 31.88 612.928 31.9867 612.934 32.14L613.434 38.48C613.441 38.6067 613.468 38.6967 613.514 38.75C613.568 38.8033 613.658 38.85 613.784 38.89L614.134 38.98C614.294 39.0267 614.374 39.1233 614.374 39.27C614.374 39.4633 614.251 39.56 614.004 39.56H611.094C610.841 39.56 610.714 39.4667 610.714 39.28C610.714 39.14 610.804 39.04 610.984 38.98L611.334 38.89C611.474 38.85 611.571 38.8 611.624 38.74C611.678 38.68 611.701 38.59 611.694 38.47L611.184 31.99L611.694 31.97L608.964 38.55C608.891 38.7233 608.818 38.84 608.744 38.9C608.678 38.9533 608.591 38.98 608.484 38.98C608.378 38.98 608.288 38.9533 608.214 38.9C608.141 38.8467 608.058 38.7233 607.964 38.53L605.274 32.05L605.754 31.93L605.194 38.32C605.181 38.48 605.211 38.6 605.284 38.68C605.358 38.76 605.484 38.83 605.664 38.89L606.014 39C606.161 39.06 606.234 39.15 606.234 39.27C606.234 39.3567 606.204 39.4267 606.144 39.48C606.091 39.5333 605.994 39.56 605.854 39.56H603.784C603.658 39.56 603.564 39.5333 603.504 39.48C603.444 39.4267 603.414 39.36 603.414 39.28C603.414 39.1933 603.438 39.13 603.484 39.09C603.538 39.0433 603.611 39.0033 603.704 38.97L603.994 38.88C604.141 38.8333 604.251 38.77 604.324 38.69C604.404 38.61 604.451 38.4867 604.464 38.32L605.014 32.2C605.028 32.04 605.004 31.92 604.944 31.84C604.891 31.7533 604.791 31.6933 604.644 31.66L604.324 31.58C604.231 31.5533 604.158 31.5167 604.104 31.47C604.058 31.4233 604.034 31.36 604.034 31.28C604.034 31.0933 604.164 31 604.424 31H606.114C606.308 31 606.451 31.0367 606.544 31.11C606.644 31.1833 606.734 31.3067 606.814 31.48L609.254 37.29Z" fill="white"/>
<path d="M646.086 174.667L646.117 164.637L574.031 164.415L574 174.445L646.086 174.667Z" fill="white"/>
<path d="M636.526 174.638L646.086 174.667L646.318 99.0289L636.759 98.9996L636.526 174.638Z" fill="white"/>
</svg>
